<?xml version="1.0" standalone="no"?>
<!DOCTYPE svg PUBLIC "-//W3C//DTD SVG 20010904//EN"
 "http://www.w3.org/TR/2001/REC-SVG-20010904/DTD/svg10.dtd">
<svg version="1.0" xmlns="http://www.w3.org/2000/svg"
 width="31.88" height="32" viewBox="0 0 219.000000 230.000000"
 preserveAspectRatio="xMidYMid meet">

<g transform="translate(0.000000,230.000000) scale(0.100000,-0.100000)"
fill="#EA4F27" stroke="none">
<path d="M917 2174 c-501 -90 -857 -516 -857 -1024 0 -478 314 -883 779 -1007
84 -23 116 -26 256 -26 141 0 172 3 259 26 363 97 648 380 746 742 27 99 38
328 21 431 -76 445 -417 788 -856 859 -111 18 -245 18 -348 -1z m177 -861 c1
-1 82 101 180 227 98 127 182 230 185 230 7 0 416 -966 416 -982 0 -9 -245
-208 -256 -208 -4 0 -64 150 -135 334 -123 320 -129 333 -144 312 -9 -11 -67
-92 -129 -178 -62 -87 -114 -158 -116 -158 -2 0 -61 81 -131 180 l-128 179
-127 -330 c-70 -182 -129 -333 -132 -336 -4 -3 -64 41 -136 98 -112 89 -128
106 -121 123 6 17 336 801 397 944 l14 33 181 -233 c99 -128 181 -234 182
-235z"/>
</g>
</svg>
